<?xml version="1.0" encoding="UTF-8"?>
<!-- Generated by Pixelmator Pro 2.4.1 -->
<svg width="500" height="469" viewBox="0 0 500 469" xmlns="http://www.w3.org/2000/svg" xmlns:xlink="http://www.w3.org/1999/xlink">
    <path id="Path" fill="#f6d860" stroke="none" d="M 458.862518 0 L 422.730469 0 L 349.7547 141.792786 L 379.264832 192.319702 C 392.021851 167.195404 405.6922 139.601776 415.738281 116.806 L 417.136719 116.806 C 418.535156 150.583405 421.303894 189.740967 424.071869 222.159042 L 428.952332 278.482819 C 430.3797 281.061523 431.778137 283.612915 433.176575 286.164246 C 435.174225 255.604233 437.799988 227.096054 439.426575 210.512207 L 459.489838 7.626251 L 458.833618 0 L 458.862518 0 Z"/>
    <path id="path1" fill="#f6d860" stroke="none" d="M 70.406952 0 L 34.275547 0 L 31.364452 34.221069 L 48.802265 210.512207 C 51.228203 232.752975 53.482811 259.485962 55.109608 285.02771 C 57.307186 280.923157 59.561798 276.735809 61.873592 272.464783 L 66.24015 222.159042 C 69.008514 193.124023 71.805473 153.273895 73.175308 118.165344 L 74.57383 118.165344 C 85.133598 140.905579 97.206253 166.5849 108.764839 190.15686 L 140.671875 136.218719 L 70.406952 0 Z"/>
    <path id="path2" fill="#f6d860" stroke="none" d="M 310.168732 254.215988 L 303.889832 266.417786 C 284.425781 304.244202 263.5914 346.091522 248.293762 382.558594 L 246.895309 382.558594 C 230.913284 346.091522 207.967194 302.219727 189.901566 267.083008 L 182.481247 252.690155 L 150.459381 306.961273 L 234.366409 468.971069 L 255.914063 468.971069 L 339.878113 304.74292 L 310.139832 254.187836 L 310.168732 254.215988 Z"/>
    <path id="path3" fill="#9f52ff" stroke="none" d="M 447.630463 444.625275 L 484.979706 444.625275 L 488.790649 406.288452 L 463.582825 116.910767 C 463.582825 116.910767 444.353149 338.325653 444.353149 338.325653 L 436.628143 338.325653 C 436.628143 338.325653 254.189087 21.656158 254.189087 21.656158 L 234.056244 21.656158 C 234.056244 21.656158 51.576874 336.966339 51.576874 336.966339 L 43.897732 336.966339 C 43.897732 336.966339 38.975002 258.471375 35.815784 229.516098 L 35.811562 229.47702 L 27.370625 144.227661 L 3.9225 418.670807 L 6.454914 444.652649 L 43.831329 444.652649 L 45.181019 442.361572 L 45.181797 442.360016 L 242.1875 101.616669 L 250 101.616669 Z"/>
</svg>
